<svg xmlns="http://www.w3.org/2000/svg" xmlns:xlink="http://www.w3.org/1999/xlink" viewBox="0 0 140.46 140.46"><defs><style>.cls-1{fill:none;}.cls-2{fill:red;}.cls-3{clip-path:url(#clip-path);}.cls-4{clip-path:url(#clip-path-3);}.cls-5{fill:#fff;}.cls-6{clip-path:url(#clip-path-5);}.cls-7{clip-path:url(#clip-path-7);}.cls-8{clip-path:url(#clip-path-9);}</style><clipPath id="clip-path"><rect class="cls-1" x="31.53" y="37.64" width="77.41" height="77.41"/></clipPath><clipPath id="clip-path-3"><rect class="cls-1" x="51.88" y="67.15" width="11.5" height="17.03"/></clipPath><clipPath id="clip-path-5"><rect class="cls-1" x="55.57" y="67.15" width="33.06" height="47.9"/></clipPath><clipPath id="clip-path-7"><rect class="cls-1" x="64.89" y="37.64" width="42.71" height="41.75"/></clipPath><clipPath id="clip-path-9"><rect class="cls-1" x="32.86" y="42.99" width="32.03" height="21.35"/></clipPath></defs><g id="Capa_2" data-name="Capa 2"><g id="Capa_1-2" data-name="Capa 1"><circle class="cls-2" cx="70.23" cy="70.23" r="70.23"/><g class="cls-3"><g class="cls-3"><g class="cls-4"><g class="cls-4"><path class="cls-5" d="M57.34,77.16a7.67,7.67,0,0,0,2.89-1.31c2.7-1.95,3.9-5.16,2.67-7.17-1.33-2.18-5-2-7.77.45a8.74,8.74,0,0,0-3.25,7.26A9.8,9.8,0,0,0,56,84.17a20,20,0,0,1,5.86-3.09h0C60.13,80.35,57.89,78.94,57.34,77.16ZM56.91,71a1.33,1.33,0,0,1,1.33-1.35A1.36,1.36,0,1,1,56.91,71Z"/></g></g><g class="cls-6"><g class="cls-6"><path class="cls-5" d="M88.63,76.4a8.76,8.76,0,0,0-3.25-7.27c-2.8-2.49-6.45-2.64-7.78-.45-1.22,2,0,5.21,2.68,7.17a7.57,7.57,0,0,0,2.88,1.31,6,6,0,0,1-2.87,3.07c-2.11,1.26-3.25,1.42-16.75,5.9-5,1.7-8,5.07-8,9A8.3,8.3,0,0,0,59,101.74a16.44,16.44,0,0,1,4.66-3.32c-2.11-1.07-2.76-1.88-2.76-3.26,0-2.29,4.57-3.6,6.67-4.29v5.78l5.34-2.38v-3.4c2.11.7,6.67,2,6.67,4.29,0,3.79-10.87,6-15.49,9.22a7.05,7.05,0,0,0-3.45,5.86,5,5,0,0,0,2.49,4.63.78.78,0,0,0,1.16-1c-1.55-3.1.1-4.64,3.29-6v4.47a2.67,2.67,0,1,0,5.34,0V107.9c3.06,1.29,5,3.1,3.28,6a.77.77,0,0,0,1.15,1c2.27-1.72,2.45-3.19,2.45-4.6a7.35,7.35,0,0,0-3.43-5.87c4.54-1.64,8.56-4.4,8.56-9.24,0-3.34-2.12-6.26-5.79-8.11a19.25,19.25,0,0,0,3.72-1.72C87.89,82.33,88.63,78.45,88.63,76.4Zm-6.37-4.06A1.36,1.36,0,1,1,83.6,71,1.35,1.35,0,0,1,82.26,72.34Z"/></g></g><g class="cls-7"><g class="cls-7"><path class="cls-5" d="M107.6,43H89.32a11.72,11.72,0,0,0-8.59,3.9C78.21,49.4,76.9,55,72.9,55V47.58a5.34,5.34,0,1,0-5.34,0V79.39l5.34-1.71V64.31a5.9,5.9,0,0,0,2.66-2.68,5.5,5.5,0,0,0,4.67,2.71,5.33,5.33,0,0,0,4.63-2.73,8.92,8.92,0,0,0,12.06.06l-4.53-4.54,2.08.87a8,8,0,0,0,10.46-4.34L98.48,51C104.73,51,107.6,47.08,107.6,43Z"/></g></g><g class="cls-8"><g class="cls-8"><path class="cls-5" d="M59.73,46.89A11.72,11.72,0,0,0,51.14,43H32.86c0,4.09,2.87,8,9.11,8l-6.44,2.67A8,8,0,0,0,46,58l2.08-.87-4.53,4.54a8.92,8.92,0,0,0,12.06-.06,5.33,5.33,0,0,0,4.63,2.73h.06a4.88,4.88,0,0,0,4.6-5V54C62.79,52.25,61.59,48.74,59.73,46.89Z"/></g></g></g></g></g></g></svg>