<svg xmlns="http://www.w3.org/2000/svg" viewBox="0 0 140.46 140.46"><defs><style>.cls-1{fill:red;}.cls-2{fill:#fff;}</style></defs><g id="Capa_2" data-name="Capa 2"><g id="Capa_1-2" data-name="Capa 1"><circle class="cls-1" cx="70.23" cy="70.23" r="70.23"/><path class="cls-2" d="M57.85,80.32v6.27a18.17,18.17,0,1,0,36.34,0V84.37a10.1,10.1,0,1,0-4,0v2.22a14.13,14.13,0,1,1-28.26,0V80.33c8.23-1.52,17.74-11.75,19.39-21.48,1.08-6.39-1.59-11.51-7.28-14.07V42.05a6.06,6.06,0,1,0-6.06,6.05h3.59c4.64,1.72,6.59,5.19,5.77,10.08C75.88,66.57,66.43,76.5,59.87,76.5c-7.36,0-17.58-11.68-17.64-20.32,0-3.86,2-6.62,5.92-8.08h3.64a6.06,6.06,0,1,0-6-6.05v2.71A12,12,0,0,0,38.2,56.18C38.22,66.3,48.71,78.63,57.85,80.32Zm32.3-7.86h4v4h-4Z"/></g></g></svg>