<svg xmlns="http://www.w3.org/2000/svg" viewBox="0 0 132.07 132.07"><defs><style>.cls-1{fill:red;}.cls-2{fill:#fff;}</style></defs><g id="Capa_2" data-name="Capa 2"><g id="Capa_1-2" data-name="Capa 1"><circle class="cls-1" cx="66.04" cy="66.04" r="66.04"/><path class="cls-2" d="M44,104.08H89.21a4.79,4.79,0,0,0,4.93-4.58V44.7a4.81,4.81,0,0,0-4.93-4.61H81.77v4.19a1.34,1.34,0,0,1-1.29,1.35H52.68a1.39,1.39,0,0,1-1.36-1.35V40.09H44a4.8,4.8,0,0,0-4.92,4.61V99.5A4.78,4.78,0,0,0,44,104.08Z"/><path class="cls-2" d="M79.16,34.23H73.07a1.31,1.31,0,0,1-1.28-1,5.3,5.3,0,0,0-5.25-4h0a5.42,5.42,0,0,0-5.25,4.07,1.3,1.3,0,0,1-1.26,1H53.92V43H79.16Z"/><path class="cls-1" d="M54.62,84.55h24a1.3,1.3,0,1,1,0,2.6h-24a1.3,1.3,0,1,1,0-2.6Z"/><path class="cls-1" d="M49.73,89.76H83.51a1.3,1.3,0,1,1,0,2.6H49.73a1.3,1.3,0,0,1,0-2.6Z"/><path class="cls-2" d="M64.67,68.59v6.68h3.91V68.59a1.3,1.3,0,0,1,1.3-1.3h6.68V63.38H69.88a1.3,1.3,0,0,1-1.3-1.3V55.4H64.67v6.68a1.3,1.3,0,0,1-1.3,1.3H56.69v3.91h6.68A1.3,1.3,0,0,1,64.67,68.59Z"/></g></g></svg>